<svg id="visual" viewBox="0 0 960 540" width="960" height="540" xmlns="http://www.w3.org/2000/svg" xmlns:xlink="http://www.w3.org/1999/xlink" version="1.1"><path d="M0 369L32 371.3C64 373.7 128 378.3 192 389.2C256 400 320 417 384 402.5C448 388 512 342 576 318.2C640 294.3 704 292.7 768 314C832 335.3 896 379.7 928 401.8L960 424L960 541L928 541C896 541 832 541 768 541C704 541 640 541 576 541C512 541 448 541 384 541C320 541 256 541 192 541C128 541 64 541 32 541L0 541Z" fill="#3182ce"></path><path d="M0 376L32 369.8C64 363.7 128 351.3 192 343.2C256 335 320 331 384 331.8C448 332.7 512 338.3 576 359.7C640 381 704 418 768 414.2C832 410.3 896 365.7 928 343.3L960 321L960 541L928 541C896 541 832 541 768 541C704 541 640 541 576 541C512 541 448 541 384 541C320 541 256 541 192 541C128 541 64 541 32 541L0 541Z" fill="#4377ab"></path><path d="M0 428L32 432.8C64 437.7 128 447.3 192 449.7C256 452 320 447 384 436.8C448 426.7 512 411.3 576 412.5C640 413.7 704 431.3 768 428C832 424.7 896 400.3 928 388.2L960 376L960 541L928 541C896 541 832 541 768 541C704 541 640 541 576 541C512 541 448 541 384 541C320 541 256 541 192 541C128 541 64 541 32 541L0 541Z" fill="#4f6b89"></path><path d="M0 478L32 477.8C64 477.7 128 477.3 192 469.5C256 461.7 320 446.3 384 446.7C448 447 512 463 576 466.7C640 470.3 704 461.7 768 465.2C832 468.7 896 484.3 928 492.2L960 500L960 541L928 541C896 541 832 541 768 541C704 541 640 541 576 541C512 541 448 541 384 541C320 541 256 541 192 541C128 541 64 541 32 541L0 541Z" fill="#565f69"></path></svg>