<svg id="visual" viewBox="0 0 960 540" width="960" height="540" xmlns="http://www.w3.org/2000/svg" xmlns:xlink="http://www.w3.org/1999/xlink" version="1.1"><path d="M0 377L32 383.5C64 390 128 403 192 413.2C256 423.3 320 430.7 384 431.2C448 431.7 512 425.3 576 404C640 382.7 704 346.3 768 334.7C832 323 896 336 928 342.5L960 349L960 541L928 541C896 541 832 541 768 541C704 541 640 541 576 541C512 541 448 541 384 541C320 541 256 541 192 541C128 541 64 541 32 541L0 541Z" fill="#3182ce"></path><path d="M0 375L32 380.5C64 386 128 397 192 393.5C256 390 320 372 384 370.2C448 368.3 512 382.7 576 398C640 413.3 704 429.7 768 426.8C832 424 896 402 928 391L960 380L960 541L928 541C896 541 832 541 768 541C704 541 640 541 576 541C512 541 448 541 384 541C320 541 256 541 192 541C128 541 64 541 32 541L0 541Z" fill="#4377ab"></path><path d="M0 424L32 434.3C64 444.7 128 465.3 192 461.8C256 458.3 320 430.7 384 416.3C448 402 512 401 576 406.2C640 411.3 704 422.7 768 422.7C832 422.7 896 411.3 928 405.7L960 400L960 541L928 541C896 541 832 541 768 541C704 541 640 541 576 541C512 541 448 541 384 541C320 541 256 541 192 541C128 541 64 541 32 541L0 541Z" fill="#4f6b89"></path><path d="M0 461L32 462.7C64 464.3 128 467.7 192 473.8C256 480 320 489 384 491.7C448 494.3 512 490.7 576 487C640 483.3 704 479.7 768 475.7C832 471.7 896 467.3 928 465.2L960 463L960 541L928 541C896 541 832 541 768 541C704 541 640 541 576 541C512 541 448 541 384 541C320 541 256 541 192 541C128 541 64 541 32 541L0 541Z" fill="#565f69"></path></svg>