<?xml version="1.0" encoding="UTF-8"?>
<svg width="53px" height="53px" viewBox="0 0 53 53" version="1.1" xmlns="http://www.w3.org/2000/svg" xmlns:xlink="http://www.w3.org/1999/xlink">
    <!-- Generator: Sketch 48.2 (47327) - http://www.bohemiancoding.com/sketch -->
    <title>icono whatsapp</title>
    <desc>Created with Sketch.</desc>
    <defs>
        <filter x="-15.6%" y="-11.1%" width="131.1%" height="131.1%" filterUnits="objectBoundingBox" id="filter-1">
            <feOffset dx="0" dy="2" in="SourceAlpha" result="shadowOffsetOuter1"></feOffset>
            <feGaussianBlur stdDeviation="2" in="shadowOffsetOuter1" result="shadowBlurOuter1"></feGaussianBlur>
            <feColorMatrix values="0 0 0 0 0   0 0 0 0 0   0 0 0 0 0  0 0 0 0.22302423 0" type="matrix" in="shadowBlurOuter1" result="shadowMatrixOuter1"></feColorMatrix>
            <feMerge>
                <feMergeNode in="shadowMatrixOuter1"></feMergeNode>
                <feMergeNode in="SourceGraphic"></feMergeNode>
            </feMerge>
        </filter>
    </defs>
    <g id="Page-1" stroke="none" stroke-width="1" fill="none" fill-rule="evenodd">
        <g id="icono-whatsapp" filter="url(#filter-1)" transform="translate(4.000000, 2.000000)" fill-rule="nonzero">
            <path d="M11.7972973,38.6756757 L12.527027,39.0405405 C15.5675676,40.8648649 18.972973,41.7162162 22.3783784,41.7162162 C33.0810811,41.7162162 41.8378378,32.9594595 41.8378378,22.2567568 C41.8378378,17.1486486 39.7702703,12.1621622 36.1216216,8.51351351 C32.472973,4.86486486 27.6081081,2.7972973 22.3783784,2.7972973 C11.6756757,2.7972973 2.91891892,11.5540541 3.04054054,22.3783784 C3.04054054,26.027027 4.13513514,29.5540541 5.95945946,32.5945946 L6.44594595,33.3243243 L4.5,40.5 L11.7972973,38.6756757 Z" id="Shape" fill="#00E676"></path>
            <path d="M38.1891892,6.56756757 C34.0540541,2.31081081 28.3378378,0 22.5,0 C10.0945946,0 0.121621622,10.0945946 0.243243243,22.3783784 C0.243243243,26.2702703 1.33783784,30.0405405 3.16216216,33.4459459 L0,45 L11.7972973,41.9594595 C15.0810811,43.7837838 18.7297297,44.6351351 22.3783784,44.6351351 C34.6621622,44.6351351 44.6351351,34.5405405 44.6351351,22.2567568 C44.6351351,16.2972973 42.3243243,10.7027027 38.1891892,6.56756757 Z M22.5,40.8648649 C19.2162162,40.8648649 15.9324324,40.0135135 13.1351351,38.3108108 L12.4054054,37.9459459 L5.35135135,39.7702703 L7.17567568,32.8378378 L6.68918919,32.1081081 C1.33783784,23.472973 3.89189189,12.0405405 12.6486486,6.68918919 C21.4054054,1.33783784 32.7162162,3.89189189 38.0675676,12.6486486 C43.4189189,21.4054054 40.8648649,32.7162162 32.1081081,38.0675676 C29.3108108,39.8918919 25.9054054,40.8648649 22.5,40.8648649 Z M33.2027027,27.3648649 L31.8648649,26.7567568 C31.8648649,26.7567568 29.9189189,25.9054054 28.7027027,25.2972973 C28.5810811,25.2972973 28.4594595,25.1756757 28.3378378,25.1756757 C27.972973,25.1756757 27.7297297,25.2972973 27.4864865,25.4189189 C27.4864865,25.4189189 27.3648649,25.5405405 25.6621622,27.4864865 C25.5405405,27.7297297 25.2972973,27.8513514 25.0540541,27.8513514 L24.9324324,27.8513514 C24.8108108,27.8513514 24.5675676,27.7297297 24.4459459,27.6081081 L23.8378378,27.3648649 C22.5,26.7567568 21.2837838,26.027027 20.3108108,25.0540541 C20.0675676,24.8108108 19.7027027,24.5675676 19.4594595,24.3243243 C18.6081081,23.472973 17.7567568,22.5 17.1486486,21.4054054 L17.027027,21.1621622 C16.9054054,21.0405405 16.9054054,20.9189189 16.7837838,20.6756757 C16.7837838,20.4324324 16.7837838,20.1891892 16.9054054,20.0675676 C16.9054054,20.0675676 17.3918919,19.4594595 17.7567568,19.0945946 C18,18.8513514 18.1216216,18.4864865 18.3648649,18.2432432 C18.6081081,17.8783784 18.7297297,17.3918919 18.6081081,17.027027 C18.4864865,16.4189189 17.027027,13.1351351 16.6621622,12.4054054 C16.4189189,12.0405405 16.1756757,11.9189189 15.8108108,11.7972973 L15.4459459,11.7972973 C15.2027027,11.7972973 14.8378378,11.7972973 14.472973,11.7972973 C14.2297297,11.7972973 13.9864865,11.9189189 13.7432432,11.9189189 L13.6216216,12.0405405 C13.3783784,12.1621622 13.1351351,12.4054054 12.8918919,12.527027 C12.6486486,12.7702703 12.527027,13.0135135 12.2837838,13.2567568 C11.4324324,14.3513514 10.9459459,15.6891892 10.9459459,17.027027 C10.9459459,18 11.1891892,18.972973 11.5540541,19.8243243 L11.6756757,20.1891892 C12.7702703,22.5 14.2297297,24.5675676 16.1756757,26.3918919 L16.6621622,26.8783784 C17.027027,27.2432432 17.3918919,27.4864865 17.6351351,27.8513514 C20.1891892,30.0405405 23.1081081,31.6216216 26.3918919,32.472973 C26.7567568,32.5945946 27.2432432,32.5945946 27.6081081,32.7162162 C27.972973,32.7162162 28.4594595,32.7162162 28.8243243,32.7162162 C29.4324324,32.7162162 30.1621622,32.472973 30.6486486,32.2297297 C31.0135135,31.9864865 31.2567568,31.9864865 31.5,31.7432432 L31.7432432,31.5 C31.9864865,31.2567568 32.2297297,31.1351351 32.472973,30.8918919 C32.7162162,30.6486486 32.9594595,30.4054054 33.0810811,30.1621622 C33.3243243,29.6756757 33.4459459,29.0675676 33.5675676,28.4594595 C33.5675676,28.2162162 33.5675676,27.8513514 33.5675676,27.6081081 C33.5675676,27.6081081 33.4459459,27.4864865 33.2027027,27.3648649 Z" id="Shape" fill="#FFFFFF"></path>
        </g>
    </g>
</svg>